<svg width="43" height="44" viewBox="0 0 43 44" fill="none" xmlns="http://www.w3.org/2000/svg">
<path d="M20.0976 16.7408C20.5382 16.8828 20.5418 16.8865 23.1638 19.5047C24.5621 20.8995 25.7056 22.0211 25.7056 21.9956C25.7056 21.9701 25.5708 21.4056 25.4106 20.7392C25.01 19.1115 24.9955 18.8128 25.2904 18.2011C25.3778 18.0153 25.4871 17.866 25.6619 17.6949C26.0952 17.2652 26.5577 17.0868 27.1622 17.1195C27.7084 17.145 28.1345 17.338 28.5168 17.7386C28.8045 18.0372 28.9174 18.3067 29.1468 19.2389C29.3835 20.2003 29.7768 21.4202 30.13 22.2614C30.2611 22.5818 30.5816 23.2774 30.8402 23.8091C31.3463 24.8505 31.5102 25.2766 31.6559 25.9248C32.4861 29.6647 30.0973 33.3754 26.3465 34.1693C24.8462 34.4897 23.2985 34.304 21.9256 33.6412C21.4267 33.4009 20.9788 33.1205 20.571 32.7928C20.1886 32.4869 14.2201 26.5256 14.0854 26.3144C13.9106 26.0413 13.8268 25.7864 13.8086 25.4477C13.7759 24.9234 13.9142 24.5009 14.242 24.1222C14.3731 23.9693 14.7263 23.7034 14.8647 23.6525C14.8902 23.6452 14.6899 23.4158 14.424 23.1426C14.0235 22.7312 13.9215 22.6073 13.8159 22.3816C13.5828 21.89 13.5828 21.3219 13.8159 20.8303C14.0344 20.3678 14.4823 19.9781 14.9484 19.8398L15.1014 19.7924L15.1159 19.3882C15.1269 19.0095 15.1378 18.9658 15.2652 18.6963C15.5092 18.1792 16.0263 17.7641 16.558 17.6512C16.8712 17.5893 17.3009 17.6257 17.6031 17.7459C17.7524 17.8078 17.858 17.8333 17.8653 17.8114C17.9017 17.7095 18.1494 17.3307 18.2513 17.2251C18.437 17.0321 18.7757 16.8246 19.0306 16.7444C19.3365 16.6498 19.8135 16.6498 20.0976 16.7408ZM19.3948 17.8041C19.118 17.8806 18.8631 18.2083 18.8595 18.4851C18.8595 18.5507 18.8849 18.6635 18.9141 18.74C18.9541 18.8311 19.5987 19.5011 20.9898 20.8958C23.1601 23.0735 23.1273 23.0334 23.0691 23.3502C23.0327 23.5359 22.8542 23.7253 22.6722 23.7763C22.3481 23.8637 22.4537 23.9547 19.7698 21.2782C18.4115 19.9199 17.2645 18.8056 17.2098 18.7874C17.0423 18.7254 16.7583 18.74 16.6017 18.8201C16.3067 18.9694 16.1501 19.3227 16.2339 19.6431C16.2812 19.8143 16.4087 19.9454 18.7502 22.2796C20.764 24.2825 21.2301 24.7631 21.2629 24.876C21.4085 25.3458 20.9096 25.7536 20.469 25.5242C20.3962 25.4842 19.3438 24.4609 18.1311 23.2446C16.9185 22.0283 15.8661 21.0051 15.7933 20.965C15.4837 20.8048 15.0868 20.914 14.872 21.2163C14.7773 21.351 14.7627 21.4093 14.7627 21.5986C14.7627 21.7698 14.7846 21.8572 14.8465 21.9591C14.8902 22.032 16.0373 23.1863 17.3919 24.5264C19.8973 27.0027 19.9847 27.0974 19.9883 27.3596C19.9883 27.5125 19.8754 27.7092 19.7334 27.8075C19.5841 27.9058 19.2855 27.9167 19.1508 27.8293C19.0998 27.7965 18.3642 27.0755 17.5121 26.2307C16.0154 24.7413 15.9571 24.6903 15.7787 24.6502C15.4582 24.5738 15.1269 24.7267 14.9739 25.0253C14.8865 25.1965 14.8974 25.4878 15.0031 25.659C15.0504 25.7391 16.4815 27.1848 18.1858 28.8781C21.0225 31.693 21.3139 31.9734 21.6744 32.2137C22.3408 32.658 23.029 32.9421 23.8302 33.1059C24.1615 33.1715 24.3473 33.186 24.9226 33.1824C25.5308 33.1824 25.6692 33.1715 26.077 33.0841C26.616 32.9712 26.9364 32.8619 27.4353 32.6216C29.0449 31.846 30.2029 30.3602 30.5925 28.5649C30.6617 28.2481 30.6726 28.0879 30.6726 27.4142C30.6726 26.7441 30.6617 26.5803 30.5925 26.2707C30.4614 25.6844 30.283 25.2074 29.937 24.5119C29.0631 22.7676 28.5096 21.3 28.0726 19.5703C27.9087 18.9148 27.8322 18.6708 27.7594 18.5761C27.3115 17.9899 26.4084 18.1756 26.2154 18.893C26.1935 18.9804 26.1826 19.1078 26.1972 19.1806C26.2081 19.2535 26.463 20.3241 26.7653 21.5622C27.0639 22.7967 27.3078 23.8418 27.3078 23.8855C27.3078 24.0967 27.0711 24.3589 26.8272 24.4099C26.5686 24.4682 26.616 24.5119 23.1929 21.0961C20.3452 18.2557 19.9155 17.8406 19.788 17.8078C19.5914 17.7604 19.555 17.7568 19.3948 17.8041Z" fill="white"/>
<path d="M13.7681 28.7521C13.9028 28.8249 13.9538 28.8868 14.0922 29.149C14.4199 29.7717 14.744 30.1723 15.2174 30.5255C15.4723 30.7185 15.9822 30.9953 16.2152 31.0717C16.6194 31.1992 16.7724 31.5816 16.5648 31.9275C16.4155 32.1788 16.1315 32.2334 15.7309 32.0805C14.6129 31.6617 13.6297 30.7586 13.109 29.6807C12.8832 29.2146 12.9305 28.9232 13.2546 28.7521C13.4549 28.6465 13.5678 28.6465 13.7681 28.7521Z" fill="white"/>
<path d="M11.9618 29.7681C12.1147 29.8518 12.2094 29.972 12.3441 30.2524C12.9122 31.4395 14.001 32.4337 15.2319 32.8925C15.4941 32.9908 15.6252 33.1511 15.647 33.3951C15.6762 33.7155 15.4358 33.985 15.1263 33.985C14.8167 33.985 13.9828 33.5917 13.3638 33.1547C12.9231 32.8452 12.2167 32.1387 11.8999 31.6908C11.5903 31.2538 11.1788 30.46 11.1788 30.2925C11.1788 30.1177 11.3209 29.87 11.4702 29.7936C11.6085 29.7171 11.8489 29.7062 11.9618 29.7681Z" fill="white"/>
<path d="M21.3468 15.2344C21.4699 15.3256 21.5475 15.3456 21.8437 15.3599C22.5466 15.3931 23.0467 15.5171 23.5672 15.7963C23.85 15.9455 24.3166 16.2902 24.4845 16.4689C24.7712 16.7811 25.1823 16.7577 25.4078 16.4232C25.5722 16.1815 25.5014 15.9011 25.1932 15.603C24.3404 14.7676 23.1059 14.2593 21.9089 14.244C21.3911 14.2369 21.1472 14.4032 21.1294 14.7692C21.1185 14.9954 21.1664 15.0977 21.3468 15.2344Z" fill="white"/>
<path d="M21.5025 13.1679C21.6431 13.271 21.7921 13.3059 22.1032 13.3092C23.4192 13.3211 24.7809 13.8865 25.7178 14.8072C25.9179 15.0031 26.1186 15.054 26.3488 14.9704C26.6515 14.8611 26.7938 14.5293 26.6627 14.2489C26.5317 13.9685 25.8222 13.3796 25.1642 13.0038C24.6972 12.7357 23.758 12.3949 23.2181 12.2976C22.6912 12.2022 21.7977 12.1657 21.646 12.2366C21.4876 12.3106 21.3235 12.5441 21.3174 12.7118C21.3067 12.8695 21.3986 13.0919 21.5025 13.1679Z" fill="white"/>
<rect x="0.367647" y="1.36521" width="42.2647" height="42.2647" rx="11.3971" stroke="white" stroke-width="0.735294"/>
</svg>
