<svg width="43" height="44" viewBox="0 0 43 44" fill="none" xmlns="http://www.w3.org/2000/svg">
<g clip-path="url(#clip0_673_159)">
<path d="M11.5332 28.7322V33.0512L11.6703 33.1936L11.8127 33.3307H12.9148C14.3914 33.3307 14.4916 33.3781 14.5549 34.1059C14.6604 35.3398 16.1 35.9146 16.9596 35.0656C17.218 34.8125 17.3867 34.417 17.3867 34.0795C17.3867 33.9266 17.4236 33.7314 17.4658 33.6471C17.6188 33.3518 17.7242 33.3307 19.1533 33.3307H20.4453V32.0334C20.4453 30.4145 20.4453 30.4145 21.1045 30.3512C21.3102 30.3301 21.5686 30.2721 21.6898 30.2193C22.6496 29.8027 22.8605 28.5318 22.0801 27.8305C21.79 27.5668 21.5686 27.4771 21.1098 27.4402C20.7934 27.4139 20.7143 27.3822 20.593 27.2609L20.4453 27.1186V25.7949V24.4713H19.09C18.1039 24.4766 17.7084 24.4924 17.6451 24.5398C17.5133 24.64 17.4395 24.8193 17.4395 25.0408C17.4395 25.8055 16.8436 26.491 16.1105 26.5648C15.5727 26.6176 15.0137 26.3381 14.7289 25.8793C14.6023 25.6736 14.5654 25.5471 14.5391 25.1779C14.5074 24.7877 14.4863 24.7086 14.3598 24.5873L14.2227 24.4449L12.8779 24.4291L11.5332 24.4133V28.7322Z" fill="white"/>
<path d="M16.1445 15.6277H11.8255L11.6832 15.7648L11.546 15.9072V17.0093C11.546 18.4859 11.4986 18.5861 10.7709 18.6494C9.53687 18.7548 8.96206 20.1945 9.81109 21.0541C10.0642 21.3125 10.4597 21.4812 10.7972 21.4812C10.9501 21.4812 11.1453 21.5181 11.2296 21.5603C11.525 21.7132 11.546 21.8187 11.546 23.2478V24.5398H12.8433C14.4623 24.5398 14.4623 24.5398 14.5255 25.199C14.5466 25.4046 14.6046 25.663 14.6574 25.7843C15.074 26.7441 16.3449 26.955 17.0462 26.1746C17.3099 25.8845 17.3996 25.663 17.4365 25.2042C17.4628 24.8878 17.4945 24.8087 17.6158 24.6875L17.7582 24.5398H19.0818H20.4054V23.1845C20.4001 22.1984 20.3843 21.8029 20.3369 21.7396C20.2367 21.6078 20.0574 21.5339 19.8359 21.5339C19.0712 21.5339 18.3857 20.938 18.3119 20.205C18.2591 19.6671 18.5386 19.1082 18.9974 18.8234C19.2031 18.6968 19.3296 18.6599 19.6988 18.6335C20.089 18.6019 20.1681 18.5808 20.2894 18.4542L20.4318 18.3171L20.4476 16.9724L20.4634 15.6277H16.1445Z" fill="#C4C4C4"/>
<path d="M24.6587 33.3591H28.9777L29.1201 33.222L29.2572 33.0796V31.9775C29.2572 30.5009 29.3046 30.4007 30.0324 30.3375C31.2664 30.232 31.8412 28.7923 30.9921 27.9328C30.739 27.6744 30.3435 27.5056 30.006 27.5056C29.8531 27.5056 29.658 27.4687 29.5736 27.4265C29.2783 27.2736 29.2572 27.1681 29.2572 25.739V24.447H27.9599C26.341 24.447 26.341 24.447 26.2777 23.7878C26.2566 23.5822 26.1986 23.3238 26.1458 23.2025C25.7292 22.2427 24.4583 22.0318 23.757 22.8123C23.4933 23.1023 23.4037 23.3238 23.3667 23.7826C23.3404 24.099 23.3087 24.1781 23.1874 24.2994L23.0451 24.447H21.7214H20.3978V25.8023C20.4031 26.7884 20.4189 27.1839 20.4664 27.2472C20.5665 27.3791 20.7458 27.4529 20.9673 27.4529C21.732 27.4529 22.4175 28.0488 22.4914 28.7818C22.5441 29.3197 22.2646 29.8787 21.8058 30.1634C21.6001 30.29 21.4736 30.3269 21.1044 30.3533C20.7142 30.3849 20.6351 30.406 20.5138 30.5326L20.3714 30.6697L20.3556 32.0144L20.3398 33.3591H24.6587Z" fill="#D9D9D9"/>
<path d="M29.4887 19.7537H25.1698L25.0274 19.6166L24.8903 19.4742V18.372C24.8903 16.8955 24.8428 16.7953 24.1151 16.732C22.8811 16.6265 22.3063 15.1869 23.1553 14.3273C23.4084 14.0689 23.804 13.9001 24.1415 13.9001C24.2944 13.9001 24.4895 13.8632 24.5739 13.821C24.8692 13.6681 24.8903 13.5626 24.8903 12.1335V10.8416H26.1876C27.8065 10.8416 27.8065 10.8416 27.8698 10.1824C27.8909 9.97671 27.9489 9.71831 28.0016 9.59702C28.4182 8.63726 29.6891 8.42632 30.3905 9.20679C30.6542 9.49683 30.7438 9.71831 30.7807 10.1771C30.8071 10.4935 30.8387 10.5726 30.96 10.6939L31.1024 10.8416H32.426L33.7497 10.8416V12.1968C33.7444 13.183 33.7286 13.5785 33.6811 13.6417C33.5809 13.7736 33.4016 13.8474 33.1801 13.8474C32.4155 13.8474 31.7299 14.4433 31.6561 15.1763C31.6034 15.7142 31.8829 16.2732 32.3417 16.558C32.5473 16.6845 32.6739 16.7214 33.043 16.7478C33.4333 16.7794 33.5124 16.8005 33.6336 16.9271L33.776 17.0642L33.7918 18.4089L33.8077 19.7537H29.4887Z" fill="white"/>
</g>
<rect x="0.3125" y="0.805176" width="42.375" height="42.375" rx="9.6875" stroke="white" stroke-width="0.625"/>
<defs>
<clipPath id="clip0_673_159">
<rect width="27" height="27" fill="white" transform="translate(8 8.49268)"/>
</clipPath>
</defs>
</svg>
