<svg width="43" height="43" viewBox="0 0 43 43" fill="none" xmlns="http://www.w3.org/2000/svg">
<path d="M20.6011 8.10046C19.9414 8.25339 19.4693 8.4907 18.9549 8.94421C18.4283 9.39773 18.162 9.80378 17.9865 10.3997C17.8655 10.8005 17.8655 11.0219 17.8655 21.4634C17.8655 33.2706 17.8413 32.4954 18.2649 33.2548C18.5433 33.7452 19.2272 34.3622 19.7841 34.6153C20.2561 34.8315 20.9824 34.995 21.4605 34.995C23.1733 34.9897 24.6924 33.9245 25.0374 32.4901C25.1161 32.1737 25.1282 30.6339 25.1282 21.4634C25.1282 11.0219 25.1282 10.8005 25.0072 10.3997C24.8316 9.80378 24.5653 9.39773 24.0388 8.93894C23.1188 8.1321 21.8418 7.82097 20.6011 8.10046Z" fill="#D9D9D9"/>
<path d="M10.6026 17.1339C9.36187 17.4556 8.43588 18.2888 8.12116 19.3593C8.00617 19.7601 8.00012 19.9446 8.00012 25.9986C8.00012 32.8962 7.98196 32.5429 8.39957 33.2706C8.67797 33.7452 9.38003 34.3675 9.91868 34.6153C11.922 35.5277 14.3308 34.6839 15.0692 32.8066L15.2326 32.3847V25.9775V19.5702L15.0692 19.1853C14.8331 18.621 14.5608 18.2571 14.0766 17.8616C13.3624 17.2816 12.5696 17.0126 11.5709 17.0179C11.2199 17.0179 10.9113 17.0548 10.6026 17.1339Z" fill="white"/>
<path d="M30.9079 26.009C29.7217 26.1672 28.6686 26.8263 28.1602 27.7228C27.7547 28.44 27.7184 28.6931 27.7426 30.6707C27.7668 32.3687 27.7668 32.3898 27.9302 32.8064C28.5354 34.3832 30.4177 35.2955 32.2213 34.8947C32.9294 34.7365 33.3893 34.5097 33.9098 34.051C34.4243 33.6027 34.7511 33.1123 34.9024 32.5586C35.0356 32.0734 35.0295 28.8777 34.9024 28.4295C34.5756 27.3168 33.5467 26.3886 32.3302 26.1092C31.9671 26.0248 31.1984 25.972 30.9079 26.009Z" fill="white"/>
<rect x="0.5" y="0.5" width="42" height="41.995" rx="7.5" stroke="white"/>
</svg>
