<svg width="19" height="19" viewBox="0 0 19 19" fill="none" xmlns="http://www.w3.org/2000/svg">
<path d="M6.59758 0.735799C7.03821 0.87782 7.04185 0.881461 9.66376 3.49974C11.0621 4.89445 12.2056 6.01605 12.2056 5.99055C12.2056 5.96506 12.0708 5.40062 11.9106 4.73422C11.51 3.10645 11.4955 2.80784 11.7904 2.19606C11.8778 2.01034 11.9871 1.86104 12.1619 1.68989C12.5952 1.26018 13.0577 1.08175 13.6622 1.11452C14.2084 1.14001 14.6345 1.33301 15.0168 1.73358C15.3045 2.03219 15.4174 2.30167 15.6468 3.2339C15.8835 4.19527 16.2768 5.41519 16.63 6.25639C16.7611 6.57684 17.0816 7.27238 17.3402 7.80405C17.8463 8.84553 18.0102 9.27159 18.1559 9.91979C18.9861 13.6597 16.5973 17.3704 12.8465 18.1643C11.3462 18.4847 9.7985 18.299 8.42564 17.6362C7.92674 17.3959 7.47883 17.1155 7.07098 16.7877C6.68862 16.4819 0.72012 10.5206 0.585382 10.3094C0.410588 10.0363 0.326832 9.78141 0.308625 9.44274C0.275851 8.91836 0.414229 8.49594 0.741969 8.11722C0.873065 7.96427 1.22629 7.69844 1.36467 7.64746C1.39016 7.64018 1.18988 7.41076 0.924046 7.13764C0.523476 6.72615 0.421513 6.60234 0.315908 6.37656C0.0828485 5.88495 0.0828485 5.31687 0.315908 4.82526C0.534401 4.36278 0.982311 3.97314 1.44843 3.83476L1.60137 3.78742L1.61594 3.38321C1.62687 3.00448 1.63779 2.96079 1.76524 2.69131C2.00923 2.17421 2.52633 1.75907 3.05799 1.64619C3.37117 1.58428 3.80087 1.6207 4.10312 1.74087C4.25242 1.80277 4.35803 1.82826 4.36531 1.80641C4.40173 1.70445 4.64935 1.32573 4.75131 1.22013C4.93703 1.02712 5.2757 0.819555 5.53061 0.739441C5.8365 0.644761 6.31354 0.644761 6.59758 0.735799ZM5.89476 1.79913C5.618 1.8756 5.36309 2.20334 5.35945 2.4801C5.35945 2.54565 5.38494 2.65854 5.41408 2.73501C5.45413 2.82605 6.09869 3.49609 7.48976 4.89081C9.66012 7.06845 9.62735 7.0284 9.56908 7.34521C9.53267 7.53093 9.35423 7.72029 9.17216 7.77127C8.84806 7.85867 8.95366 7.94971 6.26984 5.27317C4.91154 3.91487 3.76445 2.80056 3.70983 2.78235C3.54232 2.72044 3.25828 2.73501 3.10169 2.81512C2.80673 2.96443 2.65014 3.31766 2.7339 3.63811C2.78124 3.80927 2.90869 3.94036 5.25021 6.2746C7.26398 8.27745 7.7301 8.75813 7.76288 8.87102C7.90854 9.34078 7.40965 9.74863 6.96902 9.51922C6.89619 9.47916 5.84378 8.45588 4.63114 7.23961C3.41851 6.02333 2.3661 5.00005 2.29327 4.96C1.98374 4.79977 1.58681 4.90901 1.37196 5.21126C1.27728 5.346 1.26271 5.40427 1.26271 5.59363C1.26271 5.76478 1.28456 5.85218 1.34647 5.95414C1.39016 6.02697 2.53725 7.18134 3.89191 8.52143C6.39729 10.9977 6.48469 11.0924 6.48833 11.3546C6.48833 11.5075 6.37544 11.7041 6.23342 11.8025C6.08412 11.9008 5.78551 11.9117 5.65078 11.8243C5.5998 11.7915 4.8642 11.0705 4.01208 10.2257C2.5154 8.73628 2.45714 8.6853 2.2787 8.64524C1.95825 8.56877 1.62687 8.72172 1.47392 9.02032C1.38652 9.19148 1.39745 9.4828 1.50305 9.65395C1.55039 9.73407 2.98152 11.1798 4.68577 12.8731C7.52253 15.688 7.81386 15.9684 8.17437 16.2087C8.84077 16.653 9.52903 16.9371 10.3302 17.1009C10.6615 17.1665 10.8473 17.181 11.4226 17.1774C12.0308 17.1774 12.1692 17.1665 12.577 17.0791C13.116 16.9662 13.4364 16.8569 13.9353 16.6166C15.5449 15.8409 16.7029 14.3552 17.0925 12.5599C17.1617 12.2431 17.1726 12.0829 17.1726 11.4092C17.1726 10.7391 17.1617 10.5753 17.0925 10.2657C16.9614 9.67944 16.783 9.2024 16.437 8.50687C15.5631 6.76256 15.0096 5.29502 14.5726 3.56528C14.4087 2.9098 14.3322 2.66582 14.2594 2.57114C13.8115 1.98485 12.9084 2.17057 12.7154 2.88795C12.6935 2.97535 12.6826 3.10281 12.6972 3.17564C12.7081 3.24847 12.963 4.31908 13.2653 5.55721C13.5639 6.7917 13.8078 7.83682 13.8078 7.88052C13.8078 8.09173 13.5711 8.35392 13.3272 8.4049C13.0686 8.46317 13.116 8.50687 9.6929 5.09109C6.84521 2.25068 6.4155 1.83555 6.28805 1.80277C6.0914 1.75543 6.05499 1.75179 5.89476 1.79913Z" fill="white"/>
</svg>
